<svg width="10" height="17" viewBox="0 0 10 17" fill="none" xmlns="http://www.w3.org/2000/svg">
<path d="M9.36795 1.14903C9.5084 1.28965 9.58729 1.48028 9.58729 1.67903C9.58729 1.87778 9.5084 2.0684 9.36795 2.20903L2.89795 8.67903L9.36795 15.149C9.44164 15.2177 9.50074 15.3005 9.54173 15.3925C9.58273 15.4845 9.60477 15.5838 9.60655 15.6845C9.60832 15.7852 9.5898 15.8852 9.55208 15.9786C9.51436 16.072 9.45821 16.1568 9.38699 16.2281C9.31577 16.2993 9.23094 16.3554 9.13755 16.3932C9.04416 16.4309 8.94413 16.4494 8.84343 16.4476C8.74273 16.4458 8.64342 16.4238 8.55142 16.3828C8.45942 16.3418 8.37662 16.2827 8.30795 16.209L0.777954 8.67903L8.30795 1.14903C8.44858 1.00858 8.6392 0.929687 8.83795 0.929688C9.0367 0.929688 9.22733 1.00858 9.36795 1.14903Z" fill="white"/>
</svg>
