<svg width="17" height="17" viewBox="0 0 17 17" fill="none" xmlns="http://www.w3.org/2000/svg">
<g clip-path="url(#clip0_4_8297)">
<path d="M6.33801 3.62915C6.33801 2.66315 7.12201 1.87915 8.08801 1.87915H14.588C15.554 1.87915 16.338 2.66315 16.338 3.62915V14.1292C16.338 14.5933 16.1536 15.0384 15.8254 15.3666C15.4973 15.6948 15.0521 15.8792 14.588 15.8792H8.08801C7.62388 15.8792 7.17876 15.6948 6.85058 15.3666C6.52239 15.0384 6.33801 14.5933 6.33801 14.1292V3.62915ZM8.08801 3.37915C8.02171 3.37915 7.95812 3.40549 7.91124 3.45237C7.86435 3.49926 7.83801 3.56285 7.83801 3.62915V14.1292C7.83801 14.2671 7.95001 14.3792 8.08801 14.3792H14.588C14.6543 14.3792 14.7179 14.3528 14.7648 14.3059C14.8117 14.259 14.838 14.1955 14.838 14.1292V3.62915C14.838 3.56285 14.8117 3.49926 14.7648 3.45237C14.7179 3.40549 14.6543 3.37915 14.588 3.37915H8.08801ZM2.08801 3.37915C2.02171 3.37915 1.95812 3.40549 1.91124 3.45237C1.86435 3.49926 1.83801 3.56285 1.83801 3.62915V10.1292C1.83801 10.2671 1.95001 10.3792 2.08801 10.3792H4.33801V11.8792H2.08801C1.62388 11.8792 1.17876 11.6948 0.850576 11.3666C0.522387 11.0384 0.338013 10.5933 0.338013 10.1292L0.338013 3.62915C0.338013 2.66315 1.12201 1.87915 2.08801 1.87915H4.33801V3.37915H2.08801ZM4.33801 15.8792H2.33801V14.3792H4.33801V15.8792Z" fill="white" fill-opacity="0.7"/>
<path d="M13.338 10.8792C13.338 11.4096 13.1273 11.9183 12.7522 12.2934C12.3772 12.6684 11.8684 12.8792 11.338 12.8792C10.8076 12.8792 10.2989 12.6684 9.9238 12.2934C9.54873 11.9183 9.33801 11.4096 9.33801 10.8792C9.33801 10.3487 9.54873 9.84001 9.9238 9.46494C10.2989 9.08986 10.8076 8.87915 11.338 8.87915C11.8684 8.87915 12.3772 9.08986 12.7522 9.46494C13.1273 9.84001 13.338 10.3487 13.338 10.8792ZM12.338 5.87915C12.338 6.14437 12.2327 6.39872 12.0451 6.58626C11.8576 6.77379 11.6032 6.87915 11.338 6.87915C11.0728 6.87915 10.8184 6.77379 10.6309 6.58626C10.4434 6.39872 10.338 6.14437 10.338 5.87915C10.338 5.61393 10.4434 5.35958 10.6309 5.17204C10.8184 4.98451 11.0728 4.87915 11.338 4.87915C11.6032 4.87915 11.8576 4.98451 12.0451 5.17204C12.2327 5.35958 12.338 5.61393 12.338 5.87915Z" fill="white" fill-opacity="0.7"/>
</g>
<defs>
<clipPath id="clip0_4_8297">
<rect width="16" height="16" fill="white" transform="translate(0.338013 0.87915)"/>
</clipPath>
</defs>
</svg>
