<svg width="17" height="16" viewBox="0 0 17 16" fill="none" xmlns="http://www.w3.org/2000/svg">
<path d="M1.95804 1.87913C2.81246 1.07374 3.94347 0.627098 5.11763 0.631378C6.2918 0.635658 7.41952 1.09054 8.26804 1.90213C8.77853 1.41635 9.39416 1.05482 10.0671 0.845659C10.74 0.636496 11.4521 0.585329 12.148 0.696135H12.15C13.0768 0.847832 13.9353 1.27846 14.611 1.93059C15.2867 2.58272 15.7475 3.42536 15.932 4.34613V4.34913C16.0652 5.02398 16.0434 5.72025 15.8683 6.38544C15.6932 7.05063 15.3693 7.66737 14.921 8.18914L9.61804 14.5081C9.36846 14.8045 9.02831 15.0105 8.65006 15.0943C8.27181 15.1782 7.87648 15.1352 7.52504 14.9721C7.29203 14.8638 7.08553 14.7057 6.92004 14.5091L1.61604 8.18814C0.852315 7.29372 0.461762 6.13987 0.525238 4.96546C0.588715 3.79105 1.10136 2.68602 1.95704 1.87913H1.95804ZM5.11604 2.13113C4.5256 2.12813 3.94672 2.29481 3.44826 2.61132C2.94981 2.92784 2.55277 3.38088 2.30438 3.91654C2.05598 4.4522 1.96668 5.04795 2.04711 5.6329C2.12754 6.21785 2.3743 6.76739 2.75804 7.21614L2.76304 7.22114L8.06804 13.5431C8.1053 13.5869 8.15583 13.6174 8.21196 13.6298C8.2681 13.6423 8.32676 13.6361 8.37904 13.6121C8.41372 13.596 8.44444 13.5724 8.46904 13.5431L13.781 7.21314C14.0819 6.86379 14.2994 6.45065 14.4172 6.00491C14.535 5.55918 14.55 5.09251 14.461 4.64014C14.3364 4.01906 14.0255 3.45069 13.5698 3.01069C13.114 2.57069 12.5351 2.27994 11.91 2.17713C11.4412 2.10259 10.9615 2.13746 10.5084 2.27901C10.0553 2.42057 9.64106 2.66497 9.29804 2.99313L9.29104 3.00013C9.01328 3.25859 8.64795 3.40227 8.26854 3.40227C7.88914 3.40227 7.5238 3.25859 7.24604 3.00013L7.23704 2.99213C6.6668 2.44349 5.90736 2.1352 5.11604 2.13113Z" fill="white" fill-opacity="0.7"/>
</svg>
