<svg width="21" height="22" viewBox="0 0 21 22" fill="none" xmlns="http://www.w3.org/2000/svg">
<path d="M11.838 1.19404C11.382 0.930733 10.8646 0.792114 10.338 0.792114C9.8114 0.792114 9.29407 0.930733 8.83801 1.19404L1.33801 5.52404C1.03398 5.69957 0.781511 5.95204 0.605975 6.25607C0.430438 6.5601 0.338022 6.90497 0.338013 7.25604V20.679C0.338013 20.9443 0.443369 21.1986 0.630906 21.3861C0.818442 21.5737 1.0728 21.679 1.33801 21.679H7.33801C7.60323 21.679 7.85758 21.5737 8.04512 21.3861C8.23266 21.1986 8.33801 20.9443 8.33801 20.679V14.679H12.338V20.679C12.338 20.9443 12.4434 21.1986 12.6309 21.3861C12.8184 21.5737 13.0728 21.679 13.338 21.679H19.338C19.6032 21.679 19.8576 21.5737 20.0451 21.3861C20.2327 21.1986 20.338 20.9443 20.338 20.679V7.25604C20.338 6.90497 20.2456 6.5601 20.0701 6.25607C19.8945 5.95204 19.642 5.69957 19.338 5.52404L11.838 1.19404Z" fill="white"/>
</svg>
