<svg width="17" height="17" viewBox="0 0 17 17" fill="none" xmlns="http://www.w3.org/2000/svg">
<g clip-path="url(#clip0_4_8073)">
<path d="M5.76292 9.42408C5.90354 9.28363 6.09417 9.20474 6.29292 9.20474C6.49167 9.20474 6.68229 9.28363 6.82292 9.42408L8.01792 10.6181V4.67908C8.01792 4.48016 8.09694 4.2894 8.23759 4.14875C8.37824 4.00809 8.56901 3.92908 8.76792 3.92908C8.96683 3.92908 9.1576 4.00809 9.29825 4.14875C9.4389 4.2894 9.51792 4.48016 9.51792 4.67908V10.6191L10.7129 9.42408C10.7816 9.35039 10.8644 9.29129 10.9564 9.2503C11.0484 9.2093 11.1477 9.18726 11.2484 9.18549C11.3491 9.18371 11.4491 9.20223 11.5425 9.23995C11.6359 9.27768 11.7207 9.33382 11.792 9.40504C11.8632 9.47626 11.9193 9.56109 11.957 9.65448C11.9948 9.74787 12.0133 9.8479 12.0115 9.9486C12.0097 10.0493 11.9877 10.1486 11.9467 10.2406C11.9057 10.3326 11.8466 10.4154 11.7729 10.4841L8.76792 13.4901L8.23992 12.9621C8.23825 12.9604 8.23658 12.9587 8.23492 12.9571L5.76292 10.4841C5.62247 10.3435 5.54358 10.1528 5.54358 9.95408C5.54358 9.75533 5.62247 9.5647 5.76292 9.42408Z" fill="white"/>
<path d="M0.767944 8.67908C0.767944 6.55735 1.6108 4.52251 3.11109 3.02222C4.61138 1.52193 6.64621 0.679077 8.76794 0.679077C10.8897 0.679077 12.9245 1.52193 14.4248 3.02222C15.9251 4.52251 16.7679 6.55735 16.7679 8.67908C16.7679 10.8008 15.9251 12.8356 14.4248 14.3359C12.9245 15.8362 10.8897 16.6791 8.76794 16.6791C6.64621 16.6791 4.61138 15.8362 3.11109 14.3359C1.6108 12.8356 0.767944 10.8008 0.767944 8.67908ZM8.76794 2.17908C7.04404 2.17908 5.39074 2.8639 4.17175 4.08288C2.95276 5.30187 2.26794 6.95517 2.26794 8.67908C2.26794 10.403 2.95276 12.0563 4.17175 13.2753C5.39074 14.4943 7.04404 15.1791 8.76794 15.1791C10.4919 15.1791 12.1452 14.4943 13.3641 13.2753C14.5831 12.0563 15.2679 10.403 15.2679 8.67908C15.2679 6.95517 14.5831 5.30187 13.3641 4.08288C12.1452 2.8639 10.4919 2.17908 8.76794 2.17908Z" fill="white"/>
</g>
<defs>
<clipPath id="clip0_4_8073">
<rect width="16" height="16" fill="white" transform="translate(0.767944 0.679077)"/>
</clipPath>
</defs>
</svg>
