<svg width="21" height="21" viewBox="0 0 21 21" fill="none" xmlns="http://www.w3.org/2000/svg">
<path d="M1.33801 20.6791C1.0728 20.6791 0.818442 20.5737 0.630906 20.3862C0.443369 20.1986 0.338013 19.9443 0.338013 19.6791V1.67908C0.338013 1.41386 0.443369 1.15951 0.630906 0.97197C0.818442 0.784434 1.0728 0.679077 1.33801 0.679077C1.60323 0.679077 1.85758 0.784434 2.04512 0.97197C2.23266 1.15951 2.33801 1.41386 2.33801 1.67908V19.6791C2.33801 19.9443 2.23266 20.1986 2.04512 20.3862C1.85758 20.5737 1.60323 20.6791 1.33801 20.6791ZM13.838 0.813077C13.686 0.72531 13.5136 0.679104 13.338 0.679103C13.1625 0.679102 12.99 0.725305 12.838 0.813071C12.686 0.900836 12.5598 1.02707 12.472 1.17909C12.3842 1.3311 12.338 1.50354 12.338 1.67908V19.6791C12.338 19.9443 12.4434 20.1986 12.6309 20.3862C12.8184 20.5737 13.0728 20.6791 13.338 20.6791H19.338C19.6032 20.6791 19.8576 20.5737 20.0451 20.3862C20.2327 20.1986 20.338 19.9443 20.338 19.6791V5.14308C20.338 4.96755 20.2918 4.79511 20.204 4.64309C20.1163 4.49108 19.99 4.36484 19.838 4.27708L13.838 0.813077ZM7.33801 0.679077C7.0728 0.679077 6.81844 0.784434 6.63091 0.97197C6.44337 1.15951 6.33801 1.41386 6.33801 1.67908V19.6791C6.33801 19.9443 6.44337 20.1986 6.63091 20.3862C6.81844 20.5737 7.0728 20.6791 7.33801 20.6791C7.60323 20.6791 7.85758 20.5737 8.04512 20.3862C8.23266 20.1986 8.33801 19.9443 8.33801 19.6791V1.67908C8.33801 1.41386 8.23266 1.15951 8.04512 0.97197C7.85758 0.784434 7.60323 0.679077 7.33801 0.679077Z" fill="#A7A7A7"/>
</svg>
