<svg width="15" height="15" viewBox="0 0 15 15" fill="none" xmlns="http://www.w3.org/2000/svg">
<path d="M14.588 7.67908C14.588 7.87799 14.509 8.06875 14.3683 8.20941C14.2277 8.35006 14.0369 8.42908 13.838 8.42908H8.08801V14.1791C8.08801 14.378 8.00899 14.5688 7.86834 14.7094C7.72769 14.8501 7.53693 14.9291 7.33801 14.9291C7.1391 14.9291 6.94833 14.8501 6.80768 14.7094C6.66703 14.5688 6.58801 14.378 6.58801 14.1791V8.42908H0.838013C0.6391 8.42908 0.448335 8.35006 0.307683 8.20941C0.16703 8.06875 0.0880127 7.87799 0.0880127 7.67908C0.0880127 7.48016 0.16703 7.2894 0.307683 7.14875C0.448335 7.00809 0.6391 6.92908 0.838013 6.92908H6.58801V1.17908C6.58801 0.980165 6.66703 0.789399 6.80768 0.648747C6.94833 0.508095 7.1391 0.429077 7.33801 0.429077C7.53693 0.429077 7.72769 0.508095 7.86834 0.648747C8.00899 0.789399 8.08801 0.980165 8.08801 1.17908V6.92908H13.838C14.0369 6.92908 14.2277 7.00809 14.3683 7.14875C14.509 7.2894 14.588 7.48016 14.588 7.67908Z" fill="#A7A7A7"/>
</svg>
