<svg width="15" height="15" viewBox="0 0 15 15" fill="none" xmlns="http://www.w3.org/2000/svg">
<path d="M12.038 0.279053C11.8524 0.279053 11.6743 0.352802 11.543 0.484078C11.4118 0.615353 11.338 0.793401 11.338 0.979053V6.12905L1.38801 0.386053C1.28169 0.324666 1.16109 0.292323 1.03832 0.29227C0.915545 0.292216 0.794917 0.324454 0.68854 0.385748C0.582162 0.447042 0.493776 0.535235 0.432251 0.641479C0.370726 0.747723 0.338227 0.86828 0.338013 0.991053V13.5661C0.337876 13.689 0.37012 13.8098 0.431502 13.9163C0.492883 14.0228 0.581238 14.1113 0.687674 14.1729C0.794111 14.2344 0.914875 14.2668 1.03782 14.2668C1.16076 14.2669 1.28154 14.2345 1.38801 14.1731L11.338 8.42805V13.5791C11.338 13.7647 11.4118 13.9428 11.543 14.074C11.6743 14.2053 11.8524 14.2791 12.038 14.2791H13.638C13.8237 14.2791 14.0017 14.2053 14.133 14.074C14.2643 13.9428 14.338 13.7647 14.338 13.5791V0.979053C14.338 0.793401 14.2643 0.615353 14.133 0.484078C14.0017 0.352802 13.8237 0.279053 13.638 0.279053H12.038Z" fill="white" fill-opacity="0.7"/>
</svg>
