<svg width="17" height="17" viewBox="0 0 17 17" fill="none" xmlns="http://www.w3.org/2000/svg">
<g clip-path="url(#clip0_4_8283)">
<path d="M11.534 8.87915L6.33801 5.87915V11.8792L11.534 8.87915Z" fill="#A7A7A7"/>
<path d="M15.34 2.62915C15.34 2.16502 15.1557 1.7199 14.8275 1.39171C14.4993 1.06352 14.0542 0.87915 13.59 0.87915H3.09003C2.6259 0.87915 2.18078 1.06352 1.85259 1.39171C1.5244 1.7199 1.34003 2.16502 1.34003 2.62915V15.1292C1.34003 16.0951 2.12303 16.8792 3.09003 16.8792H13.59C14.0542 16.8792 14.4993 16.6948 14.8275 16.3666C15.1557 16.0384 15.34 15.5933 15.34 15.1292V2.62915ZM13.59 2.37915C13.6563 2.37915 13.7199 2.40549 13.7668 2.45237C13.8137 2.49926 13.84 2.56285 13.84 2.62915V15.1292C13.84 15.1955 13.8137 15.259 13.7668 15.3059C13.7199 15.3528 13.6563 15.3792 13.59 15.3792H3.09003C3.02372 15.3792 2.96013 15.3528 2.91325 15.3059C2.86637 15.259 2.84003 15.1955 2.84003 15.1292V2.62915C2.84003 2.56285 2.86637 2.49926 2.91325 2.45237C2.96013 2.40549 3.02372 2.37915 3.09003 2.37915H13.59Z" fill="#A7A7A7"/>
</g>
<defs>
<clipPath id="clip0_4_8283">
<rect width="16" height="16" fill="white" transform="translate(0.338013 0.87915)"/>
</clipPath>
</defs>
</svg>
