<svg width="17" height="17" viewBox="0 0 17 17" fill="none" xmlns="http://www.w3.org/2000/svg">
<g clip-path="url(#clip0_4_8312)">
<path d="M16.338 3.32915C16.338 2.52915 15.688 1.87915 14.888 1.87915H1.78801C0.988013 1.87915 0.338013 2.52915 0.338013 3.32915V14.4292C0.338013 15.2292 0.988013 15.8792 1.78801 15.8792H7.34501V14.3792H1.83801V3.37915H14.838V7.87915H16.338V3.32915Z" fill="#A7A7A7"/>
<path d="M15.588 9.88623C15.7869 9.88623 15.9777 9.96525 16.1184 10.1059C16.259 10.2466 16.338 10.4373 16.338 10.6362V15.1292C16.338 15.3281 16.259 15.5189 16.1184 15.6596C15.9777 15.8002 15.7869 15.8792 15.588 15.8792H9.66302C9.46411 15.8792 9.27335 15.8002 9.1327 15.6596C8.99204 15.5189 8.91302 15.3281 8.91302 15.1292V10.6362C8.91302 10.4373 8.99204 10.2466 9.1327 10.1059C9.27335 9.96525 9.46411 9.88623 9.66302 9.88623H15.588Z" fill="#A7A7A7"/>
</g>
<defs>
<clipPath id="clip0_4_8312">
<rect width="16" height="16" fill="white" transform="translate(0.338013 0.87915)"/>
</clipPath>
</defs>
</svg>
