<svg width="13" height="15" viewBox="0 0 13 15" fill="none" xmlns="http://www.w3.org/2000/svg">
<path d="M0.338013 0.992042C0.337876 0.8691 0.37012 0.74829 0.431502 0.641768C0.492884 0.535246 0.581238 0.446768 0.687674 0.385238C0.794111 0.323707 0.914875 0.291294 1.03782 0.29126C1.16076 0.291226 1.28154 0.323571 1.38801 0.385042L12.278 6.67304C12.3843 6.73451 12.4726 6.82286 12.534 6.92923C12.5953 7.0356 12.6276 7.15624 12.6276 7.27904C12.6276 7.40184 12.5953 7.52249 12.534 7.62885C12.4726 7.73522 12.3843 7.82358 12.278 7.88504L1.38801 14.173C1.28162 14.2345 1.16092 14.2668 1.03807 14.2668C0.91521 14.2668 0.794514 14.2345 0.688107 14.1731C0.5817 14.1117 0.493331 14.0233 0.431877 13.917C0.370424 13.8106 0.338051 13.6899 0.338013 13.567V0.992042Z" fill="black"/>
</svg>
