<svg width="15" height="15" viewBox="0 0 15 15" fill="none" xmlns="http://www.w3.org/2000/svg">
<path d="M2.63801 0.279053C2.82366 0.279053 3.00171 0.352802 3.13299 0.484078C3.26426 0.615353 3.33801 0.793401 3.33801 0.979053V6.12905L13.288 0.385053C13.3944 0.323624 13.5151 0.29128 13.638 0.29127C13.7608 0.291261 13.8815 0.323586 13.9879 0.384998C14.0943 0.44641 14.1827 0.534746 14.2441 0.641129C14.3056 0.747512 14.338 0.868196 14.338 0.991053V13.5661C14.3382 13.689 14.3059 13.8098 14.2445 13.9163C14.1831 14.0228 14.0948 14.1113 13.9884 14.1729C13.8819 14.2344 13.7612 14.2668 13.6382 14.2668C13.5153 14.2669 13.3945 14.2345 13.288 14.1731L3.33801 8.42805V13.5791C3.33801 13.7647 3.26426 13.9428 3.13299 14.074C3.00171 14.2053 2.82366 14.2791 2.63801 14.2791H1.03801C0.852361 14.2791 0.674313 14.2053 0.543038 14.074C0.411762 13.9428 0.338013 13.7647 0.338013 13.5791V0.979053C0.338013 0.793401 0.411762 0.615353 0.543038 0.484078C0.674313 0.352802 0.852361 0.279053 1.03801 0.279053H2.63801Z" fill="white" fill-opacity="0.7"/>
</svg>
