<svg width="16" height="17" viewBox="0 0 16 17" fill="none" xmlns="http://www.w3.org/2000/svg">
<path d="M6.57103 1.05004C7.41019 0.680897 8.34389 0.583852 9.24102 0.772533C10.1382 0.961215 10.9537 1.42615 11.573 2.10204C11.994 2.56104 12.286 3.09404 12.477 3.65604C12.62 4.07704 12.74 4.82904 12.697 5.55004C12.619 6.87204 12.059 7.95804 11.298 8.86604L11.171 9.01804C11.101 9.10201 11.0502 9.20027 11.0221 9.30595C10.994 9.41163 10.9894 9.52217 11.0085 9.62982C11.0277 9.73748 11.0701 9.83964 11.1329 9.92916C11.1957 10.0187 11.2773 10.0934 11.372 10.148L13.581 11.423C14.3032 11.84 14.9028 12.4397 15.3197 13.1618C15.7366 13.884 15.9561 14.7032 15.956 15.537V16.679H0.720032V15.536C0.720141 14.7023 0.939672 13.8834 1.35657 13.1614C1.77346 12.4394 2.37303 11.8399 3.09503 11.423L5.30403 10.148C5.39873 10.0934 5.48034 10.0187 5.54313 9.92916C5.60592 9.83964 5.64837 9.73748 5.66752 9.62982C5.68667 9.52217 5.68205 9.41163 5.65398 9.30595C5.62591 9.20027 5.57507 9.10201 5.50503 9.01804L5.37903 8.86604C4.61803 7.95804 4.05703 6.87204 3.97903 5.55004C3.93603 4.82904 4.05603 4.07704 4.19903 3.65604C4.38876 3.0807 4.69668 2.55137 5.10303 2.10204C5.51403 1.65404 6.01303 1.29504 6.57103 1.05004ZM8.33803 2.17904C7.93742 2.17895 7.54118 2.26221 7.17448 2.42352C6.80779 2.58483 6.47866 2.82067 6.20803 3.11604C5.94293 3.412 5.74265 3.76011 5.62003 4.13804C5.54303 4.36404 5.44503 4.92104 5.47703 5.46104C5.53103 6.38204 5.91703 7.17304 6.52803 7.90304L6.53003 7.90404L6.65703 8.05704C6.86716 8.30893 7.01967 8.60373 7.10388 8.92076C7.18808 9.2378 7.20195 9.56942 7.1445 9.89238C7.08706 10.2153 6.95969 10.5218 6.77132 10.7904C6.58295 11.0589 6.33814 11.2831 6.05403 11.447L3.84503 12.722C3.40354 12.977 3.02822 13.3322 2.74941 13.7591C2.47059 14.1859 2.2961 14.6723 2.24003 15.179H14.436C14.38 14.6723 14.2055 14.1859 13.9267 13.7591C13.6478 13.3322 13.2725 12.977 12.831 12.722L10.622 11.447C10.3379 11.2831 10.0931 11.0589 9.90475 10.7904C9.71638 10.5218 9.58901 10.2153 9.53156 9.89238C9.47411 9.56942 9.48798 9.2378 9.57219 8.92076C9.65639 8.60373 9.8089 8.30893 10.019 8.05704L10.146 7.90404L10.148 7.90304C10.76 7.17304 11.145 6.38304 11.2 5.46104C11.232 4.92104 11.133 4.36404 11.056 4.13804C10.9334 3.76011 10.7331 3.412 10.468 3.11604C10.1974 2.82067 9.86828 2.58483 9.50158 2.42352C9.13488 2.26221 8.73864 2.17895 8.33803 2.17904Z" fill="white"/>
</svg>
