<svg width="15" height="15" viewBox="0 0 15 15" fill="none" xmlns="http://www.w3.org/2000/svg">
<path d="M14.338 14.8792H0.338013V13.3792H14.338V14.8792ZM14.338 10.3792H0.338013V8.87915H14.338V10.3792ZM0.338013 3.37915C0.338013 2.71611 0.601405 2.08022 1.07025 1.61138C1.53909 1.14254 2.17497 0.87915 2.83801 0.87915H11.838C12.5011 0.87915 13.1369 1.14254 13.6058 1.61138C14.0746 2.08022 14.338 2.71611 14.338 3.37915C14.338 4.04219 14.0746 4.67808 13.6058 5.14692C13.1369 5.61576 12.5011 5.87915 11.838 5.87915H2.83801C2.17497 5.87915 1.53909 5.61576 1.07025 5.14692C0.601405 4.67808 0.338013 4.04219 0.338013 3.37915ZM2.83801 2.37915C2.5728 2.37915 2.31844 2.48451 2.13091 2.67204C1.94337 2.85958 1.83801 3.11393 1.83801 3.37915C1.83801 3.64437 1.94337 3.89872 2.13091 4.08626C2.31844 4.27379 2.5728 4.37915 2.83801 4.37915H11.838C12.1032 4.37915 12.3576 4.27379 12.5451 4.08626C12.7327 3.89872 12.838 3.64437 12.838 3.37915C12.838 3.11393 12.7327 2.85958 12.5451 2.67204C12.3576 2.48451 12.1032 2.37915 11.838 2.37915H2.83801Z" fill="#A7A7A7"/>
</svg>
