<svg width="17" height="16" viewBox="0 0 17 16" fill="none" xmlns="http://www.w3.org/2000/svg">
<path d="M0.338013 4.02905C0.338013 3.03449 0.733101 2.08066 1.43636 1.3774C2.13962 0.674141 3.09345 0.279053 4.08801 0.279053H12.588C13.5826 0.279053 14.5364 0.674141 15.2397 1.3774C15.9429 2.08066 16.338 3.03449 16.338 4.02905V9.02905C16.338 10.0236 15.9429 10.9774 15.2397 11.6807C14.5364 12.384 13.5826 12.7791 12.588 12.7791H10.148L11.166 13.7971C11.2397 13.8657 11.2988 13.9485 11.3398 14.0405C11.3808 14.1325 11.4028 14.2318 11.4046 14.3325C11.4064 14.4332 11.3879 14.5333 11.3501 14.6267C11.3124 14.72 11.2563 14.8049 11.1851 14.8761C11.1138 14.9473 11.029 15.0035 10.9356 15.0412C10.8422 15.0789 10.7422 15.0974 10.6415 15.0956C10.5408 15.0939 10.4415 15.0718 10.3495 15.0308C10.2575 14.9898 10.1747 14.9307 10.106 14.8571L7.27701 12.0291L10.106 9.20105C10.1747 9.12737 10.2575 9.06826 10.3495 9.02727C10.4415 8.98628 10.5408 8.96424 10.6415 8.96246C10.7422 8.96068 10.8422 8.97921 10.9356 9.01693C11.029 9.05465 11.1138 9.1108 11.1851 9.18201C11.2563 9.25323 11.3124 9.33807 11.3501 9.43145C11.3879 9.52484 11.4064 9.62487 11.4046 9.72558C11.4028 9.82628 11.3808 9.92559 11.3398 10.0176C11.2988 10.1096 11.2397 10.1924 11.166 10.2611L10.149 11.2791H12.588C13.1847 11.2791 13.757 11.042 14.179 10.62C14.601 10.1981 14.838 9.62579 14.838 9.02905V4.02905C14.838 3.43232 14.601 2.86002 14.179 2.43806C13.757 2.01611 13.1847 1.77905 12.588 1.77905H4.08801C3.49128 1.77905 2.91898 2.01611 2.49702 2.43806C2.07507 2.86002 1.83801 3.43232 1.83801 4.02905V9.02905C1.83801 9.62579 2.07507 10.1981 2.49702 10.62C2.91898 11.042 3.49128 11.2791 4.08801 11.2791H5.33801V12.7791H4.08801C3.09345 12.7791 2.13962 12.384 1.43636 11.6807C0.733101 10.9774 0.338013 10.0236 0.338013 9.02905L0.338013 4.02905Z" fill="white" fill-opacity="0.7"/>
</svg>
