<svg width="17" height="17" viewBox="0 0 17 17" fill="none" xmlns="http://www.w3.org/2000/svg">
<path d="M8.33789 2.17908C7.27702 2.17908 6.25961 2.6005 5.50946 3.35065C4.75932 4.1008 4.33789 5.11821 4.33789 6.17908V9.44908C4.33768 9.58001 4.30321 9.7086 4.23789 9.82208L2.59289 12.6791H14.0829L12.4379 9.82108C12.3724 9.70731 12.3379 9.57835 12.3379 9.44708V6.17908C12.3379 5.11821 11.9165 4.1008 11.1663 3.35065C10.4162 2.6005 9.39875 2.17908 8.33789 2.17908ZM2.83789 6.17908C2.83789 4.72039 3.41735 3.32144 4.4488 2.28999C5.48025 1.25854 6.8792 0.679077 8.33789 0.679077C9.79658 0.679077 11.1955 1.25854 12.227 2.28999C13.2584 3.32144 13.8379 4.72039 13.8379 6.17908V9.24608L16.0309 13.0551C16.0965 13.1691 16.1309 13.2984 16.1308 13.4299C16.1306 13.5615 16.0959 13.6907 16.03 13.8045C15.9642 13.9184 15.8695 14.013 15.7556 14.0787C15.6417 14.1444 15.5124 14.1791 15.3809 14.1791H10.8379C10.8379 14.8421 10.5745 15.478 10.1057 15.9468C9.63681 16.4157 9.00093 16.6791 8.33789 16.6791C7.67485 16.6791 7.03896 16.4157 6.57012 15.9468C6.10128 15.478 5.83789 14.8421 5.83789 14.1791H1.29489C1.16334 14.1791 1.03411 14.1444 0.920171 14.0787C0.806229 14.013 0.711582 13.9184 0.645729 13.8045C0.579875 13.6907 0.545131 13.5615 0.544983 13.4299C0.544836 13.2984 0.57929 13.1691 0.644888 13.0551L2.83789 9.24808V6.17908ZM7.33789 14.1791C7.33789 14.4443 7.44324 14.6986 7.63078 14.8862C7.81832 15.0737 8.07267 15.1791 8.33789 15.1791C8.6031 15.1791 8.85746 15.0737 9.04499 14.8862C9.23253 14.6986 9.33789 14.4443 9.33789 14.1791H7.33789Z" fill="white" fill-opacity="0.7"/>
</svg>
