<svg width="22" height="23" viewBox="0 0 22 23" fill="none" xmlns="http://www.w3.org/2000/svg">
<path d="M9.87099 0.958031C4.69099 0.958031 0.463989 5.09803 0.463989 10.237C0.463989 15.376 4.68999 19.516 9.87099 19.516C12.105 19.516 14.161 18.746 15.778 17.458L20.131 21.811C20.2232 21.9065 20.3336 21.9827 20.4556 22.0351C20.5776 22.0875 20.7088 22.1151 20.8416 22.1163C20.9744 22.1174 21.106 22.0921 21.2289 22.0419C21.3518 21.9916 21.4635 21.9173 21.5574 21.8234C21.6513 21.7295 21.7255 21.6179 21.7758 21.495C21.8261 21.3721 21.8514 21.2404 21.8502 21.1076C21.8491 20.9748 21.8215 20.8436 21.7691 20.7216C21.7167 20.5996 21.6405 20.4893 21.545 20.397L17.201 16.053C18.5459 14.4134 19.28 12.3577 19.278 10.237C19.278 5.09703 15.052 0.957031 9.87099 0.957031V0.958031ZM2.46399 10.237C2.46399 6.23103 5.76599 2.95703 9.87099 2.95703C13.976 2.95703 17.278 6.23103 17.278 10.237C17.278 14.243 13.976 17.516 9.87099 17.516C5.76599 17.516 2.46399 14.244 2.46399 10.237Z" fill="#B3B3B3"/>
</svg>
