<svg width="17" height="17" viewBox="0 0 17 17" fill="none" xmlns="http://www.w3.org/2000/svg">
<path d="M7.52803 1.6791C7.52768 1.53065 7.57146 1.38544 7.6538 1.26191C7.73614 1.13839 7.85333 1.04212 7.99049 0.985322C8.12765 0.928529 8.2786 0.913776 8.42416 0.942937C8.56972 0.972099 8.70333 1.04386 8.80803 1.1491L16.338 8.6691L8.80803 16.1901C8.68704 16.3195 8.52416 16.4019 8.34823 16.4227C8.1723 16.4435 7.9947 16.4013 7.84688 16.3037C7.69906 16.2061 7.59057 16.0593 7.54063 15.8893C7.49069 15.7193 7.50252 15.5372 7.57403 15.3751C7.61514 15.2833 7.67432 15.2006 7.74803 15.1321L13.468 9.41811H1.08803C0.986417 9.42336 0.884795 9.40788 0.789352 9.37261C0.693908 9.33734 0.606639 9.28302 0.532856 9.21295C0.459073 9.14288 0.400319 9.05853 0.36017 8.96504C0.320021 8.87154 0.299316 8.77086 0.299316 8.6691C0.299316 8.56735 0.320021 8.46667 0.36017 8.37317C0.400319 8.27967 0.459073 8.19533 0.532856 8.12526C0.606639 8.05519 0.693908 8.00087 0.789352 7.9656C0.884795 7.93033 0.986417 7.91485 1.08803 7.9201H13.468L7.74803 2.2081C7.67832 2.13856 7.62301 2.05595 7.58526 1.96501C7.54751 1.87407 7.52807 1.77757 7.52803 1.6791Z" fill="#A7A7A7"/>
</svg>
