<svg width="17" height="17" viewBox="0 0 17 17" fill="none" xmlns="http://www.w3.org/2000/svg">
<g clip-path="url(#clip0_4_8254)">
<path d="M13.489 1.20111C13.4204 1.12742 13.3376 1.06832 13.2456 1.02733C13.1536 0.986338 13.0542 0.964296 12.9535 0.962519C12.8528 0.960742 12.7528 0.979267 12.6594 1.01699C12.566 1.05471 12.4812 1.11085 12.41 1.18207C12.3388 1.25329 12.2826 1.33812 12.2449 1.43151C12.2072 1.5249 12.1886 1.62493 12.1904 1.72563C12.1922 1.82634 12.2142 1.92565 12.2552 2.01765C12.2962 2.10965 12.3553 2.19245 12.429 2.26111L13.447 3.27911H11.498C10.9503 3.27912 10.4093 3.39909 9.91295 3.63059C9.4166 3.86209 8.97699 4.19951 8.62501 4.61911L2.45201 11.9751C2.24081 12.2269 1.977 12.4294 1.67916 12.5683C1.38131 12.7072 1.05665 12.7791 0.728013 12.7791H0.338013V14.2791H0.729013C1.27669 14.2791 1.81773 14.1591 2.31407 13.9276C2.81042 13.6961 3.25004 13.3587 3.60201 12.9391L9.77501 5.58311C9.98622 5.33132 10.25 5.12886 10.5479 4.98996C10.8457 4.85105 11.1704 4.77909 11.499 4.77911H13.446L12.429 5.79711C12.2965 5.93929 12.2244 6.12733 12.2278 6.32163C12.2313 6.51593 12.31 6.70132 12.4474 6.83873C12.5848 6.97615 12.7702 7.05486 12.9645 7.05829C13.1588 7.06171 13.3468 6.98959 13.489 6.85711L16.318 4.02911L13.488 1.20111H13.489ZM0.729013 3.77911H0.338013V2.27911H0.729013C1.83801 2.27911 2.88901 2.76911 3.60201 3.61911L5.22801 5.55611L4.24901 6.72311L2.45301 4.58311C2.2417 4.33119 1.97773 4.12865 1.67971 3.98975C1.38168 3.85084 1.05682 3.77894 0.728013 3.77911H0.729013Z" fill="white" fill-opacity="0.7"/>
<path d="M7.83801 11.0021L8.81801 9.83511L9.77501 10.9751C9.98622 11.2269 10.25 11.4294 10.5479 11.5683C10.8457 11.7072 11.1704 11.7791 11.499 11.7791H13.446L12.429 10.7611C12.3553 10.6924 12.2962 10.6096 12.2552 10.5176C12.2142 10.4256 12.1922 10.3263 12.1904 10.2256C12.1886 10.1249 12.2072 10.0249 12.2449 9.93151C12.2826 9.83812 12.3388 9.75329 12.41 9.68207C12.4812 9.61085 12.566 9.55471 12.6594 9.51699C12.7528 9.47927 12.8528 9.46074 12.9535 9.46252C13.0542 9.4643 13.1536 9.48634 13.2456 9.52733C13.3376 9.56832 13.4204 9.62742 13.489 9.70111L16.318 12.5291L13.489 15.3571C13.4204 15.4308 13.3376 15.4899 13.2456 15.5309C13.1536 15.5719 13.0542 15.5939 12.9535 15.5957C12.8528 15.5975 12.7528 15.579 12.6594 15.5412C12.566 15.5035 12.4812 15.4474 12.41 15.3761C12.3388 15.3049 12.2826 15.2201 12.2449 15.1267C12.2072 15.0333 12.1886 14.9333 12.1904 14.8326C12.1922 14.7319 12.2142 14.6326 12.2552 14.5406C12.2962 14.4486 12.3553 14.3658 12.429 14.2971L13.447 13.2791H11.498C10.9503 13.2791 10.4093 13.1591 9.91295 12.9276C9.4166 12.6961 8.97699 12.3587 8.62501 11.9391L7.83801 11.0021Z" fill="white" fill-opacity="0.7"/>
</g>
<defs>
<clipPath id="clip0_4_8254">
<rect width="16" height="16" fill="white" transform="translate(0.338013 0.279053)"/>
</clipPath>
</defs>
</svg>
