<svg width="17" height="17" viewBox="0 0 17 17" fill="none" xmlns="http://www.w3.org/2000/svg">
<g clip-path="url(#clip0_4_8303)">
<path d="M10.079 1.72912C10.1931 1.79499 10.2878 1.88974 10.3537 2.00385C10.4195 2.11795 10.4541 2.24739 10.454 2.37912V15.3791C10.4541 15.5108 10.4195 15.6402 10.3537 15.7543C10.2879 15.8684 10.1933 15.9631 10.0792 16.029C9.96521 16.0949 9.83584 16.1296 9.70415 16.1296C9.57246 16.1296 9.44308 16.095 9.32903 16.0291L2.40403 12.0291C1.57023 11.5457 0.96205 10.7514 0.712753 9.82042C0.463457 8.8894 0.593371 7.89753 1.07403 7.06212C1.39287 6.50916 1.85155 6.04979 2.40403 5.73012L9.32903 1.73012C9.44305 1.66429 9.57238 1.62964 9.70403 1.62964C9.83568 1.62964 9.96502 1.66329 10.079 1.72912ZM3.15503 7.02912C2.831 7.21718 2.56205 7.48705 2.37509 7.81172C2.18813 8.13639 2.08973 8.50447 2.08973 8.87912C2.08973 9.25377 2.18813 9.62185 2.37509 9.94652C2.56205 10.2712 2.831 10.5411 3.15503 10.7291L8.95503 14.0791V3.67912L3.15503 7.02912ZM11.838 11.3191V6.43912C12.2846 6.67129 12.659 7.02158 12.9202 7.45183C13.1815 7.88207 13.3196 8.37577 13.3196 8.87912C13.3196 9.38247 13.1815 9.87617 12.9202 10.3064C12.659 10.7367 12.2846 11.087 11.838 11.3191Z" fill="white" fill-opacity="0.7"/>
<path d="M11.838 14.4931C13.1145 14.2084 14.2559 13.497 15.0739 12.4765C15.8919 11.4559 16.3376 10.1871 16.3376 8.87914C16.3376 7.57122 15.8919 6.30236 15.0739 5.2818C14.2559 4.26123 13.1145 3.54991 11.838 3.26514V4.81514C12.7068 5.0828 13.4668 5.62184 14.0068 6.35316C14.5467 7.08449 14.838 7.9696 14.838 8.87864C14.838 9.78768 14.5467 10.6728 14.0068 11.4041C13.4668 12.1354 12.7068 12.6745 11.838 12.9421V14.4921V14.4931Z" fill="white" fill-opacity="0.7"/>
</g>
<defs>
<clipPath id="clip0_4_8303">
<rect width="16" height="16" fill="white" transform="translate(0.338013 0.87915)"/>
</clipPath>
</defs>
</svg>
